<mxfile host="app.diagrams.net" modified="2022-02-15T07:52:46.034Z" agent="5.0 (Windows NT 10.0; Win64; x64) AppleWebKit/537.36 (KHTML, like Gecko) Chrome/98.0.4758.82 Safari/537.36" etag="lqaPBBQsMt8LifxRgyJZ" version="16.5.6" type="github">
  <diagram id="S-3z3gY1DUawhLGB5Od1" name="Page-1">
    <mxGraphModel dx="1422" dy="786" grid="1" gridSize="10" guides="1" tooltips="1" connect="1" arrows="1" fold="1" page="1" pageScale="1" pageWidth="1169" pageHeight="1654" math="0" shadow="0">
      <root>
        <mxCell id="0" />
        <mxCell id="1" parent="0" />
        <mxCell id="WlhzL5B_EylpTMc-1tn4-3" value="Dashboard" style="text;html=1;strokeColor=none;fillColor=none;align=center;verticalAlign=middle;whiteSpace=wrap;rounded=0;fontSize=15;fontFamily=Verdana;" vertex="1" parent="1">
          <mxGeometry x="290" y="110" width="80" height="30" as="geometry" />
        </mxCell>
        <mxCell id="WlhzL5B_EylpTMc-1tn4-5" value="Task" style="text;html=1;strokeColor=none;fillColor=none;align=center;verticalAlign=middle;whiteSpace=wrap;rounded=0;fontSize=15;fontFamily=Verdana;" vertex="1" parent="1">
          <mxGeometry x="280" y="160" width="80" height="30" as="geometry" />
        </mxCell>
        <mxCell id="WlhzL5B_EylpTMc-1tn4-6" value="Schedule" style="text;html=1;strokeColor=none;fillColor=none;align=center;verticalAlign=middle;whiteSpace=wrap;rounded=0;fontSize=15;fontFamily=Verdana;" vertex="1" parent="1">
          <mxGeometry x="280" y="210" width="80" height="30" as="geometry" />
        </mxCell>
        <mxCell id="WlhzL5B_EylpTMc-1tn4-8" value="All Schedule" style="text;html=1;strokeColor=none;fillColor=none;align=center;verticalAlign=middle;whiteSpace=wrap;rounded=0;fontSize=15;fontFamily=Verdana;" vertex="1" parent="1">
          <mxGeometry x="420" y="210" width="100" height="30" as="geometry" />
        </mxCell>
        <mxCell id="WlhzL5B_EylpTMc-1tn4-9" value="Holidays" style="text;html=1;strokeColor=none;fillColor=none;align=center;verticalAlign=middle;whiteSpace=wrap;rounded=0;fontSize=15;fontFamily=Verdana;" vertex="1" parent="1">
          <mxGeometry x="420" y="250" width="100" height="30" as="geometry" />
        </mxCell>
        <mxCell id="WlhzL5B_EylpTMc-1tn4-11" value="" style="endArrow=classic;html=1;rounded=0;fontFamily=Verdana;fontSize=15;exitX=1;exitY=0.5;exitDx=0;exitDy=0;entryX=0;entryY=0.5;entryDx=0;entryDy=0;" edge="1" parent="1" source="WlhzL5B_EylpTMc-1tn4-6" target="WlhzL5B_EylpTMc-1tn4-8">
          <mxGeometry width="50" height="50" relative="1" as="geometry">
            <mxPoint x="570" y="400" as="sourcePoint" />
            <mxPoint x="620" y="350" as="targetPoint" />
          </mxGeometry>
        </mxCell>
        <mxCell id="WlhzL5B_EylpTMc-1tn4-12" value="" style="endArrow=classic;html=1;rounded=0;fontFamily=Verdana;fontSize=15;exitX=1;exitY=0.5;exitDx=0;exitDy=0;entryX=0;entryY=0.25;entryDx=0;entryDy=0;" edge="1" parent="1" source="WlhzL5B_EylpTMc-1tn4-6" target="WlhzL5B_EylpTMc-1tn4-9">
          <mxGeometry width="50" height="50" relative="1" as="geometry">
            <mxPoint x="570" y="400" as="sourcePoint" />
            <mxPoint x="620" y="350" as="targetPoint" />
            <Array as="points">
              <mxPoint x="360" y="260" />
            </Array>
          </mxGeometry>
        </mxCell>
      </root>
    </mxGraphModel>
  </diagram>
</mxfile>
